<?xml version="1.0" encoding="UTF-8"?> <svg xmlns="http://www.w3.org/2000/svg" xmlns:xlink="http://www.w3.org/1999/xlink" width="150" zoomAndPan="magnify" viewBox="0 0 112.5 112.499997" height="150" preserveAspectRatio="xMidYMid meet"> <defs> <clipPath id="id1"> <path d="M 1 6.46875 L 112.003906 6.46875 L 112.003906 106.21875 L 1 106.21875 Z M 1 6.46875 " clip-rule="nonzero"></path> </clipPath> </defs> <g clip-path="url(#id1)"> <path fill="#0079ba" d="M 62.769531 97.988281 C 52.664062 97.988281 42.925781 94.3125 35.347656 87.640625 C 33.859375 86.332031 31.785156 85.871094 28.601562 85.871094 C 26.234375 85.871094 23.25 86.128906 19.449219 86.476562 C 17.257812 86.679688 14.1875 86.96875 11.75 87.050781 C 12.921875 85.777344 14.324219 84.378906 15.359375 83.34375 C 20.636719 78.085938 24.800781 73.933594 23.351562 69.59375 C 21.925781 65.339844 21.203125 60.882812 21.203125 56.34375 C 21.203125 33.382812 39.847656 14.699219 62.769531 14.699219 C 85.6875 14.699219 104.332031 33.382812 104.332031 56.34375 C 104.332031 79.304688 85.6875 97.988281 62.769531 97.988281 Z M 97.902344 21.144531 C 88.515625 11.742188 76.039062 6.566406 62.769531 6.566406 C 49.496094 6.566406 37.019531 11.742188 27.636719 21.144531 C 18.25 30.546875 13.082031 43.046875 13.082031 56.34375 C 13.082031 61.445312 13.847656 66.46875 15.359375 71.285156 C 14.453125 72.769531 11.484375 75.730469 9.636719 77.574219 C 7.609375 79.589844 5.519531 81.675781 4.042969 83.550781 C 3.035156 84.824219 -0.0078125 88.6875 2.433594 92.304688 C 4.8125 95.828125 10.160156 95.507812 20.199219 94.578125 C 23.613281 94.265625 28.6875 93.796875 30.394531 94.105469 C 39.394531 101.863281 50.871094 106.121094 62.769531 106.121094 C 76.039062 106.121094 88.515625 100.945312 97.902344 91.542969 C 107.285156 82.140625 112.453125 69.640625 112.453125 56.34375 C 112.453125 43.046875 107.285156 30.546875 97.902344 21.144531 " fill-opacity="1" fill-rule="nonzero"></path> </g> <path fill="#0079ba" d="M 55.128906 85.226562 L 70.40625 85.226562 L 70.40625 49.042969 L 55.128906 49.042969 L 55.128906 85.226562 " fill-opacity="1" fill-rule="nonzero"></path> <path fill="#0079ba" d="M 62.769531 27.441406 C 58.152344 27.441406 54.414062 31.1875 54.414062 35.808594 C 54.414062 40.429688 58.152344 44.179688 62.769531 44.179688 C 67.382812 44.179688 71.121094 40.429688 71.121094 35.808594 C 71.121094 31.1875 67.382812 27.441406 62.769531 27.441406 " fill-opacity="1" fill-rule="nonzero"></path> </svg> 