<?xml version="1.0" encoding="UTF-8"?> <svg xmlns="http://www.w3.org/2000/svg" xmlns:xlink="http://www.w3.org/1999/xlink" width="150" zoomAndPan="magnify" viewBox="0 0 112.5 112.499997" height="150" preserveAspectRatio="xMidYMid meet"> <defs> <clipPath id="id1"> <path d="M 25 0 L 87 0 L 87 112.003906 L 25 112.003906 Z M 25 0 " clip-rule="nonzero"></path> </clipPath> </defs> <g clip-path="url(#id1)"> <path fill="#0079ba" d="M 86.570312 72.527344 C 86.570312 48.554688 42.609375 50.117188 42.609375 35.644531 C 42.609375 28.636719 49.277344 25.214844 57.007812 25.214844 C 70.011719 25.214844 72.328125 33.617188 78.21875 33.617188 C 82.390625 33.617188 84.398438 30.976562 84.398438 28.015625 C 84.398438 21.136719 74.023438 15.929688 64.078125 14.128906 L 64.078125 7.492188 C 64.078125 3.351562 60.746094 -0.0078125 56.625 -0.0078125 C 52.503906 -0.0078125 49.167969 3.351562 49.167969 7.492188 L 49.167969 14.363281 C 38.324219 16.84375 28.996094 24.40625 28.996094 36.734375 C 28.996094 59.761719 72.949219 58.832031 72.949219 75.007812 C 72.949219 80.609375 66.917969 86.210938 57.007812 86.210938 C 42.148438 86.210938 37.199219 76.101562 31.164062 76.101562 C 28.222656 76.101562 25.59375 78.585938 25.59375 82.335938 C 25.59375 88.292969 35.523438 95.460938 49.175781 97.464844 L 49.167969 97.511719 L 49.167969 105.003906 C 49.167969 109.148438 52.507812 112.507812 56.628906 112.507812 C 60.746094 112.507812 64.085938 109.148438 64.085938 105.003906 L 64.085938 97.511719 C 64.085938 97.425781 64.042969 97.355469 64.035156 97.277344 C 76.320312 94.972656 86.570312 86.917969 86.570312 72.527344 Z M 86.570312 72.527344 " fill-opacity="1" fill-rule="nonzero"></path> </g> </svg> 