<?xml version="1.0" encoding="UTF-8"?> <svg xmlns="http://www.w3.org/2000/svg" xmlns:xlink="http://www.w3.org/1999/xlink" width="150" zoomAndPan="magnify" viewBox="0 0 112.5 112.499997" height="150" preserveAspectRatio="xMidYMid meet"> <defs> <clipPath id="id1"> <path d="M 16.058594 0 L 96.308594 0 L 96.308594 112.003906 L 16.058594 112.003906 Z M 16.058594 0 " clip-rule="nonzero"></path> </clipPath> </defs> <g clip-path="url(#id1)"> <path fill="#0079ba" d="M 56.183594 112.5 C 55.171875 112.5 54.289062 112.164062 53.535156 111.496094 L 39.332031 98.878906 C 37.542969 97.320312 35.839844 95.671875 34.222656 93.9375 C 32.605469 92.199219 31.085938 90.382812 29.65625 88.484375 C 28.230469 86.585938 26.910156 84.617188 25.6875 82.582031 C 24.46875 80.542969 23.359375 78.449219 22.359375 76.292969 C 21.359375 74.140625 20.476562 71.9375 19.707031 69.691406 C 18.941406 67.445312 18.292969 65.164062 17.761719 62.847656 C 17.234375 60.53125 16.828125 58.195312 16.542969 55.835938 C 16.261719 53.476562 16.101562 51.113281 16.066406 48.738281 L 16.066406 28.125 C 16.066406 27.859375 16.09375 27.601562 16.144531 27.339844 C 16.195312 27.082031 16.273438 26.832031 16.371094 26.585938 C 16.472656 26.34375 16.597656 26.113281 16.742188 25.894531 C 16.890625 25.671875 17.054688 25.46875 17.242188 25.285156 C 17.429688 25.097656 17.632812 24.929688 17.851562 24.785156 C 18.070312 24.636719 18.300781 24.515625 18.542969 24.414062 C 18.789062 24.3125 19.039062 24.234375 19.296875 24.183594 C 19.554688 24.132812 19.816406 24.105469 20.078125 24.105469 C 21.082031 24.105469 44.507812 23.746094 52.410156 2.613281 C 52.550781 2.222656 52.746094 1.867188 52.996094 1.539062 C 53.25 1.210938 53.542969 0.929688 53.878906 0.691406 C 54.214844 0.457031 54.582031 0.273438 54.976562 0.152344 C 55.367188 0.0273438 55.769531 -0.0351562 56.183594 -0.0351562 C 56.59375 -0.0351562 56.996094 0.0273438 57.390625 0.152344 C 57.78125 0.273438 58.148438 0.457031 58.484375 0.691406 C 58.820312 0.929688 59.117188 1.210938 59.367188 1.539062 C 59.617188 1.867188 59.8125 2.222656 59.953125 2.613281 C 67.894531 23.867188 92.042969 24.105469 92.285156 24.105469 C 92.546875 24.105469 92.808594 24.132812 93.066406 24.183594 C 93.324219 24.234375 93.578125 24.3125 93.820312 24.414062 C 94.0625 24.515625 94.292969 24.636719 94.511719 24.785156 C 94.730469 24.929688 94.933594 25.097656 95.121094 25.285156 C 95.308594 25.46875 95.472656 25.671875 95.621094 25.894531 C 95.765625 26.113281 95.890625 26.34375 95.992188 26.585938 C 96.089844 26.832031 96.167969 27.082031 96.21875 27.339844 C 96.269531 27.601562 96.296875 27.859375 96.296875 28.125 L 96.296875 48.738281 C 96.261719 51.113281 96.101562 53.476562 95.820312 55.835938 C 95.535156 58.195312 95.128906 60.53125 94.601562 62.847656 C 94.070312 65.164062 93.421875 67.445312 92.65625 69.691406 C 91.886719 71.9375 91.003906 74.140625 90.003906 76.292969 C 89.003906 78.449219 87.894531 80.542969 86.675781 82.582031 C 85.453125 84.617188 84.132812 86.585938 82.707031 88.484375 C 81.28125 90.382812 79.757812 92.199219 78.140625 93.9375 C 76.523438 95.671875 74.820312 97.320312 73.03125 98.878906 L 58.828125 111.496094 C 58.074219 112.164062 57.191406 112.5 56.183594 112.5 Z M 24.089844 31.863281 L 24.089844 48.738281 C 24.105469 50.832031 24.234375 52.925781 24.476562 55.007812 C 24.71875 57.089844 25.066406 59.15625 25.53125 61.203125 C 25.992188 63.246094 26.558594 65.261719 27.238281 67.25 C 27.914062 69.234375 28.695312 71.175781 29.582031 73.078125 C 30.464844 74.976562 31.449219 76.824219 32.53125 78.621094 C 33.617188 80.414062 34.792969 82.148438 36.058594 83.816406 C 37.328125 85.484375 38.679688 87.082031 40.121094 88.605469 C 41.558594 90.128906 43.074219 91.570312 44.667969 92.933594 L 56.183594 103.097656 L 67.695312 92.851562 C 69.289062 91.492188 70.804688 90.050781 72.242188 88.527344 C 73.683594 87.003906 75.035156 85.40625 76.304688 83.738281 C 77.574219 82.066406 78.75 80.335938 79.832031 78.539062 C 80.914062 76.746094 81.898438 74.898438 82.78125 72.996094 C 83.667969 71.09375 84.449219 69.152344 85.125 67.167969 C 85.804688 65.183594 86.371094 63.167969 86.835938 61.121094 C 87.296875 59.074219 87.648438 57.011719 87.886719 54.925781 C 88.128906 52.84375 88.257812 50.753906 88.273438 48.65625 L 88.273438 31.863281 C 85.070312 31.566406 81.941406 30.925781 78.882812 29.941406 C 75.820312 28.957031 72.902344 27.648438 70.132812 26.019531 C 67.359375 24.394531 64.796875 22.480469 62.441406 20.289062 C 60.089844 18.09375 58.003906 15.671875 56.183594 13.019531 C 54.363281 15.671875 52.273438 18.09375 49.921875 20.289062 C 47.570312 22.480469 45.003906 24.394531 42.230469 26.019531 C 39.460938 27.648438 36.542969 28.957031 33.480469 29.941406 C 30.421875 30.925781 27.292969 31.566406 24.089844 31.863281 Z M 24.089844 31.863281 " fill-opacity="1" fill-rule="nonzero"></path> </g> <path fill="#0079ba" d="M 50.164062 71.316406 C 49.054688 71.324219 48.105469 70.933594 47.316406 70.152344 L 37.289062 60.269531 C 37.101562 60.082031 36.933594 59.875 36.789062 59.65625 C 36.640625 59.4375 36.515625 59.203125 36.414062 58.960938 C 36.3125 58.714844 36.238281 58.460938 36.1875 58.203125 C 36.132812 57.941406 36.109375 57.679688 36.109375 57.414062 C 36.109375 57.148438 36.132812 56.886719 36.1875 56.628906 C 36.238281 56.367188 36.3125 56.117188 36.414062 55.871094 C 36.515625 55.625 36.640625 55.394531 36.789062 55.175781 C 36.933594 54.953125 37.101562 54.75 37.289062 54.5625 C 37.476562 54.375 37.679688 54.207031 37.898438 54.0625 C 38.117188 53.914062 38.351562 53.789062 38.59375 53.6875 C 38.839844 53.585938 39.089844 53.511719 39.351562 53.457031 C 39.609375 53.40625 39.871094 53.382812 40.136719 53.382812 C 40.402344 53.382812 40.664062 53.40625 40.921875 53.457031 C 41.179688 53.511719 41.433594 53.585938 41.675781 53.6875 C 41.921875 53.789062 42.152344 53.914062 42.375 54.0625 C 42.59375 54.207031 42.796875 54.375 42.984375 54.5625 L 50.164062 61.792969 L 69.378906 42.507812 C 69.566406 42.320312 69.769531 42.15625 69.988281 42.007812 C 70.210938 41.859375 70.441406 41.738281 70.6875 41.636719 C 70.929688 41.535156 71.183594 41.457031 71.441406 41.40625 C 71.699219 41.355469 71.960938 41.328125 72.226562 41.328125 C 72.492188 41.328125 72.753906 41.355469 73.011719 41.40625 C 73.269531 41.457031 73.523438 41.535156 73.765625 41.636719 C 74.011719 41.738281 74.242188 41.863281 74.464844 42.007812 C 74.683594 42.15625 74.886719 42.324219 75.074219 42.511719 C 75.261719 42.699219 75.425781 42.902344 75.574219 43.121094 C 75.722656 43.34375 75.84375 43.574219 75.945312 43.820312 C 76.046875 44.0625 76.125 44.316406 76.175781 44.574219 C 76.226562 44.835938 76.253906 45.097656 76.253906 45.363281 C 76.253906 45.628906 76.226562 45.890625 76.175781 46.148438 C 76.125 46.410156 76.046875 46.660156 75.949219 46.90625 C 75.847656 47.148438 75.722656 47.382812 75.574219 47.601562 C 75.429688 47.824219 75.261719 48.027344 75.074219 48.214844 L 53.011719 70.3125 C 52.199219 71.035156 51.25 71.367188 50.164062 71.316406 Z M 50.164062 71.316406 " fill-opacity="1" fill-rule="nonzero"></path> </svg> 