<?xml version="1.0" encoding="UTF-8"?> <svg xmlns="http://www.w3.org/2000/svg" xmlns:xlink="http://www.w3.org/1999/xlink" width="150" zoomAndPan="magnify" viewBox="0 0 112.5 112.499997" height="150" preserveAspectRatio="xMidYMid meet"> <defs> <clipPath id="id1"> <path d="M 0 2.558594 L 112.003906 2.558594 L 112.003906 109.808594 L 0 109.808594 Z M 0 2.558594 " clip-rule="nonzero"></path> </clipPath> </defs> <g clip-path="url(#id1)"> <path fill="#0079ba" d="M 109.082031 2.585938 C 108.910156 2.585938 108.730469 2.601562 108.558594 2.632812 L 108.550781 2.632812 L 91.382812 5.5625 C 90.289062 5.75 89.375 6.496094 88.972656 7.527344 C 88.972656 7.53125 88.972656 7.535156 88.972656 7.535156 L 81.003906 27.941406 L 3.253906 29.878906 C 2.359375 29.898438 1.519531 30.304688 0.9375 30.976562 C 0.355469 31.648438 0.078125 32.542969 0.183594 33.433594 L 4.476562 68.894531 C 4.65625 70.382812 5.886719 71.5625 7.378906 71.675781 L 62.8125 76.078125 L 73.796875 84.710938 C 73.808594 84.722656 73.824219 84.730469 73.835938 84.742188 C 73.847656 84.75 73.863281 84.75 73.875 84.761719 C 73.886719 84.769531 73.898438 84.78125 73.914062 84.789062 C 75.917969 86.285156 76.414062 88.320312 76.132812 89.453125 C 75.96875 90.097656 75.722656 90.570312 75.136719 90.933594 C 74.550781 91.300781 73.539062 91.5625 71.808594 91.464844 C 71.804688 91.464844 71.796875 91.464844 71.789062 91.464844 C 71.734375 91.464844 71.671875 91.464844 71.617188 91.464844 L 71.589844 91.464844 L 5.476562 91.65625 L 5.46875 91.65625 C 3.730469 91.648438 2.269531 93.101562 2.277344 94.835938 C 2.28125 96.570312 3.75 98.019531 5.488281 97.996094 L 5.496094 97.996094 L 10.328125 97.988281 C 8.535156 99.128906 7.332031 101.128906 7.332031 103.402344 C 7.332031 106.933594 10.226562 109.828125 13.761719 109.828125 C 17.300781 109.828125 20.195312 106.933594 20.195312 103.402344 C 20.195312 101.117188 18.988281 99.097656 17.179688 97.957031 L 71.617188 97.804688 C 69.65625 98.90625 68.320312 101.003906 68.320312 103.402344 C 68.320312 106.933594 71.214844 109.828125 74.753906 109.828125 C 78.289062 109.828125 81.1875 106.933594 81.1875 103.402344 C 81.1875 100.332031 79.003906 97.746094 76.113281 97.121094 C 78.847656 96.152344 80.945312 94.160156 82.246094 91.117188 C 82.265625 91.082031 82.28125 91.042969 82.292969 91.003906 C 83.292969 87.019531 81.523438 82.691406 77.878906 79.875 C 77.867188 79.867188 77.859375 79.855469 77.847656 79.847656 C 77.839844 79.839844 77.839844 79.824219 77.828125 79.816406 C 77.796875 79.777344 77.761719 79.742188 77.722656 79.710938 L 69.9375 73.613281 L 94.214844 11.503906 L 109.621094 8.882812 L 109.628906 8.882812 C 111.246094 8.625 112.429688 7.117188 112.292969 5.484375 C 112.152344 3.847656 110.722656 2.5625 109.078125 2.582031 Z M 78.660156 32.835938 L 74.183594 44.300781 L 68.347656 44.300781 L 68.347656 33.09375 Z M 66.121094 33.152344 L 66.121094 44.296875 L 55.347656 44.296875 L 55.347656 33.421875 Z M 53.121094 33.46875 L 53.121094 44.296875 L 42.34375 44.296875 L 42.34375 33.738281 Z M 40.117188 33.796875 L 40.117188 44.296875 L 29.34375 44.296875 L 29.34375 34.066406 Z M 27.117188 34.125 L 27.117188 44.296875 L 16.34375 44.296875 L 16.34375 34.394531 Z M 14.113281 34.445312 L 14.113281 44.296875 L 6.214844 44.296875 L 5.046875 34.675781 Z M 6.484375 46.515625 L 14.113281 46.515625 L 14.113281 56.582031 L 7.699219 56.582031 Z M 16.34375 46.515625 L 27.117188 46.515625 L 27.117188 56.582031 L 16.34375 56.582031 Z M 29.34375 46.515625 L 40.117188 46.515625 L 40.117188 56.582031 L 29.34375 56.582031 Z M 42.34375 46.515625 L 53.121094 46.515625 L 53.121094 56.582031 L 42.34375 56.582031 Z M 55.347656 46.515625 L 66.121094 46.515625 L 66.121094 56.582031 L 55.347656 56.582031 Z M 68.347656 46.515625 L 73.328125 46.515625 L 69.390625 56.582031 L 68.347656 56.582031 Z M 7.972656 58.796875 L 14.117188 58.796875 L 14.117188 66.023438 L 8.792969 65.597656 Z M 16.34375 58.796875 L 27.117188 58.796875 L 27.117188 67.054688 L 16.34375 66.195312 Z M 29.34375 58.796875 L 40.117188 58.796875 L 40.117188 68.085938 L 29.34375 67.238281 Z M 42.347656 58.796875 L 53.121094 58.796875 L 53.121094 69.125 L 42.347656 68.265625 Z M 55.347656 58.796875 L 66.121094 58.796875 L 66.121094 64.925781 L 64.078125 70.15625 C 63.8125 70.027344 63.523438 69.949219 63.230469 69.925781 L 55.347656 69.296875 Z M 68.351562 58.796875 L 68.515625 58.796875 L 68.351562 59.25 Z M 13.769531 99.625 C 15.871094 99.625 17.550781 101.300781 17.550781 103.402344 C 17.550781 105.5 15.871094 107.167969 13.769531 107.167969 C 11.667969 107.167969 9.988281 105.503906 9.988281 103.402344 C 9.988281 101.300781 11.667969 99.625 13.769531 99.625 Z M 74.753906 99.625 C 76.859375 99.625 78.535156 101.300781 78.535156 103.402344 C 78.535156 105.5 76.859375 107.167969 74.753906 107.167969 C 72.652344 107.167969 70.972656 105.503906 70.972656 103.402344 C 70.972656 101.300781 72.652344 99.625 74.753906 99.625 Z M 13.769531 101.417969 C 12.628906 101.417969 11.714844 102.328125 11.714844 103.46875 C 11.714844 104.609375 12.628906 105.511719 13.769531 105.511719 C 14.910156 105.511719 15.824219 104.609375 15.824219 103.46875 C 15.824219 102.328125 14.910156 101.417969 13.769531 101.417969 Z M 74.753906 101.417969 C 73.613281 101.417969 72.699219 102.328125 72.699219 103.46875 C 72.699219 104.609375 73.613281 105.511719 74.753906 105.511719 C 75.898438 105.511719 76.808594 104.609375 76.808594 103.46875 C 76.808594 102.328125 75.898438 101.417969 74.753906 101.417969 Z M 74.753906 101.417969 " fill-opacity="1" fill-rule="nonzero"></path> </g> </svg> 